<mxfile host="65bd71144e">
    <diagram id="Z6ldYPp-Irapa0euUSAe" name="Page-1">
        <mxGraphModel dx="1107" dy="409" grid="1" gridSize="10" guides="1" tooltips="1" connect="1" arrows="1" fold="1" page="1" pageScale="1" pageWidth="850" pageHeight="1100" math="0" shadow="0">
            <root>
                <mxCell id="0"/>
                <mxCell id="1" parent="0"/>
                <mxCell id="4" style="edgeStyle=none;html=1;" edge="1" parent="1" source="2" target="3">
                    <mxGeometry relative="1" as="geometry"/>
                </mxCell>
                <mxCell id="2" value="START" style="ellipse;whiteSpace=wrap;html=1;" vertex="1" parent="1">
                    <mxGeometry x="135" y="40" width="120" height="80" as="geometry"/>
                </mxCell>
                <mxCell id="6" style="edgeStyle=none;html=1;" edge="1" parent="1" source="3" target="5">
                    <mxGeometry relative="1" as="geometry"/>
                </mxCell>
                <mxCell id="3" value="secret(a: {17, 5, 864, 51, 77, 789})" style="whiteSpace=wrap;html=1;" vertex="1" parent="1">
                    <mxGeometry x="78" y="160" width="235" height="60" as="geometry"/>
                </mxCell>
                <mxCell id="8" style="edgeStyle=none;html=1;" edge="1" parent="1" source="5" target="7">
                    <mxGeometry relative="1" as="geometry"/>
                </mxCell>
                <mxCell id="5" value="secret(a: {17, 5, 864, 51, 77, 789}, m: 5)" style="whiteSpace=wrap;html=1;" vertex="1" parent="1">
                    <mxGeometry x="78" y="280" width="235" height="60" as="geometry"/>
                </mxCell>
                <mxCell id="7" value="m == 0" style="rhombus;whiteSpace=wrap;html=1;" vertex="1" parent="1">
                    <mxGeometry x="155" y="400" width="80" height="80" as="geometry"/>
                </mxCell>
                <mxCell id="19" style="edgeStyle=none;html=1;" edge="1" parent="1" target="20">
                    <mxGeometry relative="1" as="geometry">
                        <mxPoint x="260" y="650" as="targetPoint"/>
                        <mxPoint x="433" y="470" as="sourcePoint"/>
                    </mxGeometry>
                </mxCell>
                <mxCell id="25" style="edgeStyle=none;html=1;" edge="1" parent="1" source="12" target="24">
                    <mxGeometry relative="1" as="geometry"/>
                </mxCell>
                <mxCell id="12" value="secret(a: {17, 5, 864, 51, 77, 789}, m: 4)" style="whiteSpace=wrap;html=1;" vertex="1" parent="1">
                    <mxGeometry x="78" y="560" width="235" height="60" as="geometry"/>
                </mxCell>
                <mxCell id="22" style="edgeStyle=none;html=1;" edge="1" parent="1" target="21">
                    <mxGeometry relative="1" as="geometry">
                        <mxPoint x="433" y="390" as="sourcePoint"/>
                    </mxGeometry>
                </mxCell>
                <mxCell id="15" value="" style="edgeStyle=segmentEdgeStyle;endArrow=classic;html=1;curved=0;rounded=0;endSize=8;startSize=8;sourcePerimeterSpacing=0;targetPerimeterSpacing=0;" edge="1" parent="1" source="7" target="12">
                    <mxGeometry width="100" relative="1" as="geometry">
                        <mxPoint x="140" y="530" as="sourcePoint"/>
                        <mxPoint x="240" y="570" as="targetPoint"/>
                        <Array as="points">
                            <mxPoint x="290" y="440"/>
                            <mxPoint x="290" y="520"/>
                            <mxPoint x="196" y="520"/>
                        </Array>
                    </mxGeometry>
                </mxCell>
                <mxCell id="16" value="" style="edgeStyle=segmentEdgeStyle;endArrow=classic;html=1;curved=0;rounded=0;endSize=8;startSize=8;sourcePerimeterSpacing=0;targetPerimeterSpacing=0;" edge="1" parent="1" source="7">
                    <mxGeometry width="100" relative="1" as="geometry">
                        <mxPoint x="195" y="480" as="sourcePoint"/>
                        <mxPoint x="313" y="470" as="targetPoint"/>
                        <Array as="points">
                            <mxPoint x="290" y="440"/>
                            <mxPoint x="290" y="470"/>
                        </Array>
                    </mxGeometry>
                </mxCell>
                <mxCell id="17" value="" style="edgeStyle=segmentEdgeStyle;endArrow=classic;html=1;curved=0;rounded=0;endSize=8;startSize=8;sourcePerimeterSpacing=0;targetPerimeterSpacing=0;" edge="1" parent="1" source="7">
                    <mxGeometry width="100" relative="1" as="geometry">
                        <mxPoint x="210" y="480" as="sourcePoint"/>
                        <mxPoint x="313" y="390" as="targetPoint"/>
                        <Array as="points">
                            <mxPoint x="290" y="440"/>
                            <mxPoint x="290" y="390"/>
                        </Array>
                    </mxGeometry>
                </mxCell>
                <mxCell id="18" value="false" style="text;html=1;align=center;verticalAlign=middle;resizable=0;points=[];autosize=1;strokeColor=none;fillColor=none;" vertex="1" parent="1">
                    <mxGeometry x="235" y="410" width="50" height="30" as="geometry"/>
                </mxCell>
                <mxCell id="20" value="7" style="shape=parallelogram;perimeter=parallelogramPerimeter;whiteSpace=wrap;html=1;fixedSize=1;" vertex="1" parent="1">
                    <mxGeometry x="470" y="440" width="120" height="60" as="geometry"/>
                </mxCell>
                <mxCell id="21" value="8" style="shape=parallelogram;perimeter=parallelogramPerimeter;whiteSpace=wrap;html=1;fixedSize=1;" vertex="1" parent="1">
                    <mxGeometry x="470" y="360" width="120" height="60" as="geometry"/>
                </mxCell>
                <mxCell id="24" value="m == 0" style="rhombus;whiteSpace=wrap;html=1;" vertex="1" parent="1">
                    <mxGeometry x="155.5" y="680" width="80" height="80" as="geometry"/>
                </mxCell>
                <mxCell id="26" value="false" style="text;html=1;align=center;verticalAlign=middle;resizable=0;points=[];autosize=1;strokeColor=none;fillColor=none;" vertex="1" parent="1">
                    <mxGeometry x="235.5" y="690" width="50" height="30" as="geometry"/>
                </mxCell>
                <mxCell id="27" value="" style="edgeStyle=segmentEdgeStyle;endArrow=classic;html=1;curved=0;rounded=0;endSize=8;startSize=8;sourcePerimeterSpacing=0;targetPerimeterSpacing=0;" edge="1" parent="1">
                    <mxGeometry width="100" relative="1" as="geometry">
                        <mxPoint x="235" y="720" as="sourcePoint"/>
                        <mxPoint x="313" y="670" as="targetPoint"/>
                        <Array as="points">
                            <mxPoint x="290" y="720"/>
                            <mxPoint x="290" y="670"/>
                        </Array>
                    </mxGeometry>
                </mxCell>
                <mxCell id="28" value="" style="edgeStyle=segmentEdgeStyle;endArrow=classic;html=1;curved=0;rounded=0;endSize=8;startSize=8;sourcePerimeterSpacing=0;targetPerimeterSpacing=0;" edge="1" parent="1">
                    <mxGeometry width="100" relative="1" as="geometry">
                        <mxPoint x="235" y="720" as="sourcePoint"/>
                        <mxPoint x="313" y="750" as="targetPoint"/>
                        <Array as="points">
                            <mxPoint x="290" y="720"/>
                            <mxPoint x="290" y="750"/>
                        </Array>
                    </mxGeometry>
                </mxCell>
                <mxCell id="32" style="edgeStyle=none;html=1;" edge="1" parent="1" source="29" target="31">
                    <mxGeometry relative="1" as="geometry">
                        <mxPoint x="600" y="670" as="targetPoint"/>
                    </mxGeometry>
                </mxCell>
                <mxCell id="29" value="sod(n: 77)" style="whiteSpace=wrap;html=1;" vertex="1" parent="1">
                    <mxGeometry x="313" y="640" width="120" height="60" as="geometry"/>
                </mxCell>
                <mxCell id="34" style="edgeStyle=none;html=1;" edge="1" parent="1" source="30" target="33">
                    <mxGeometry relative="1" as="geometry"/>
                </mxCell>
                <mxCell id="30" value="sod(n: 51)" style="whiteSpace=wrap;html=1;" vertex="1" parent="1">
                    <mxGeometry x="313" y="720" width="120" height="60" as="geometry"/>
                </mxCell>
                <mxCell id="31" value="7" style="shape=parallelogram;perimeter=parallelogramPerimeter;whiteSpace=wrap;html=1;fixedSize=1;" vertex="1" parent="1">
                    <mxGeometry x="470" y="640" width="120" height="60" as="geometry"/>
                </mxCell>
                <mxCell id="33" value="3" style="shape=parallelogram;perimeter=parallelogramPerimeter;whiteSpace=wrap;html=1;fixedSize=1;" vertex="1" parent="1">
                    <mxGeometry x="470" y="720" width="120" height="60" as="geometry"/>
                </mxCell>
                <mxCell id="64" style="edgeStyle=none;html=1;" edge="1" parent="1" source="35" target="52">
                    <mxGeometry relative="1" as="geometry"/>
                </mxCell>
                <mxCell id="35" value="secret(a: {17, 5, 864, 51, 77, 789}, m: 3)" style="whiteSpace=wrap;html=1;" vertex="1" parent="1">
                    <mxGeometry x="78" y="840" width="235" height="60" as="geometry"/>
                </mxCell>
                <mxCell id="36" value="" style="edgeStyle=segmentEdgeStyle;endArrow=classic;html=1;curved=0;rounded=0;endSize=8;startSize=8;sourcePerimeterSpacing=0;targetPerimeterSpacing=0;" edge="1" parent="1" source="24">
                    <mxGeometry width="100" relative="1" as="geometry">
                        <mxPoint x="234" y="720" as="sourcePoint"/>
                        <mxPoint x="195" y="840" as="targetPoint"/>
                        <Array as="points">
                            <mxPoint x="290" y="720"/>
                            <mxPoint x="290" y="800"/>
                            <mxPoint x="195" y="800"/>
                        </Array>
                    </mxGeometry>
                </mxCell>
                <mxCell id="52" value="m == 0" style="rhombus;whiteSpace=wrap;html=1;" vertex="1" parent="1">
                    <mxGeometry x="155.5" y="960" width="80" height="80" as="geometry"/>
                </mxCell>
                <mxCell id="53" value="false" style="text;html=1;align=center;verticalAlign=middle;resizable=0;points=[];autosize=1;strokeColor=none;fillColor=none;" vertex="1" parent="1">
                    <mxGeometry x="235.5" y="970" width="50" height="30" as="geometry"/>
                </mxCell>
                <mxCell id="54" value="" style="edgeStyle=segmentEdgeStyle;endArrow=classic;html=1;curved=0;rounded=0;endSize=8;startSize=8;sourcePerimeterSpacing=0;targetPerimeterSpacing=0;" edge="1" parent="1">
                    <mxGeometry width="100" relative="1" as="geometry">
                        <mxPoint x="235" y="1000" as="sourcePoint"/>
                        <mxPoint x="313" y="950" as="targetPoint"/>
                        <Array as="points">
                            <mxPoint x="290" y="1000"/>
                            <mxPoint x="290" y="950"/>
                        </Array>
                    </mxGeometry>
                </mxCell>
                <mxCell id="55" value="" style="edgeStyle=segmentEdgeStyle;endArrow=classic;html=1;curved=0;rounded=0;endSize=8;startSize=8;sourcePerimeterSpacing=0;targetPerimeterSpacing=0;" edge="1" parent="1">
                    <mxGeometry width="100" relative="1" as="geometry">
                        <mxPoint x="235" y="1000" as="sourcePoint"/>
                        <mxPoint x="313" y="1030" as="targetPoint"/>
                        <Array as="points">
                            <mxPoint x="290" y="1000"/>
                            <mxPoint x="290" y="1030"/>
                        </Array>
                    </mxGeometry>
                </mxCell>
                <mxCell id="56" style="edgeStyle=none;html=1;" edge="1" target="60" parent="1">
                    <mxGeometry relative="1" as="geometry">
                        <mxPoint x="600" y="950" as="targetPoint"/>
                        <mxPoint x="433" y="950" as="sourcePoint"/>
                    </mxGeometry>
                </mxCell>
                <mxCell id="58" style="edgeStyle=none;html=1;" edge="1" target="61" parent="1">
                    <mxGeometry relative="1" as="geometry">
                        <mxPoint x="433" y="1030" as="sourcePoint"/>
                    </mxGeometry>
                </mxCell>
                <mxCell id="60" value="3" style="shape=parallelogram;perimeter=parallelogramPerimeter;whiteSpace=wrap;html=1;fixedSize=1;" vertex="1" parent="1">
                    <mxGeometry x="470" y="920" width="120" height="60" as="geometry"/>
                </mxCell>
                <mxCell id="61" value="6" style="shape=parallelogram;perimeter=parallelogramPerimeter;whiteSpace=wrap;html=1;fixedSize=1;" vertex="1" parent="1">
                    <mxGeometry x="470" y="1000" width="120" height="60" as="geometry"/>
                </mxCell>
                <mxCell id="78" style="edgeStyle=none;html=1;" edge="1" parent="1" source="62" target="66">
                    <mxGeometry relative="1" as="geometry"/>
                </mxCell>
                <mxCell id="62" value="secret(a: {17, 5, 864, 51, 77, 789}, m: 2)" style="whiteSpace=wrap;html=1;" vertex="1" parent="1">
                    <mxGeometry x="78" y="1120" width="235" height="60" as="geometry"/>
                </mxCell>
                <mxCell id="63" value="" style="edgeStyle=segmentEdgeStyle;endArrow=classic;html=1;curved=0;rounded=0;endSize=8;startSize=8;sourcePerimeterSpacing=0;targetPerimeterSpacing=0;" edge="1" source="52" parent="1">
                    <mxGeometry width="100" relative="1" as="geometry">
                        <mxPoint x="234" y="1000" as="sourcePoint"/>
                        <mxPoint x="195" y="1120" as="targetPoint"/>
                        <Array as="points">
                            <mxPoint x="290" y="1000"/>
                            <mxPoint x="290" y="1080"/>
                            <mxPoint x="195" y="1080"/>
                        </Array>
                    </mxGeometry>
                </mxCell>
                <mxCell id="66" value="m == 0" style="rhombus;whiteSpace=wrap;html=1;" vertex="1" parent="1">
                    <mxGeometry x="155.5" y="1240" width="80" height="80" as="geometry"/>
                </mxCell>
                <mxCell id="67" value="false" style="text;html=1;align=center;verticalAlign=middle;resizable=0;points=[];autosize=1;strokeColor=none;fillColor=none;" vertex="1" parent="1">
                    <mxGeometry x="235.5" y="1250" width="50" height="30" as="geometry"/>
                </mxCell>
                <mxCell id="68" value="" style="edgeStyle=segmentEdgeStyle;endArrow=classic;html=1;curved=0;rounded=0;endSize=8;startSize=8;sourcePerimeterSpacing=0;targetPerimeterSpacing=0;" edge="1" parent="1">
                    <mxGeometry width="100" relative="1" as="geometry">
                        <mxPoint x="235" y="1280" as="sourcePoint"/>
                        <mxPoint x="313" y="1230" as="targetPoint"/>
                        <Array as="points">
                            <mxPoint x="290" y="1280"/>
                            <mxPoint x="290" y="1230"/>
                        </Array>
                    </mxGeometry>
                </mxCell>
                <mxCell id="69" value="" style="edgeStyle=segmentEdgeStyle;endArrow=classic;html=1;curved=0;rounded=0;endSize=8;startSize=8;sourcePerimeterSpacing=0;targetPerimeterSpacing=0;" edge="1" parent="1">
                    <mxGeometry width="100" relative="1" as="geometry">
                        <mxPoint x="235" y="1280" as="sourcePoint"/>
                        <mxPoint x="313" y="1310" as="targetPoint"/>
                        <Array as="points">
                            <mxPoint x="290" y="1280"/>
                            <mxPoint x="290" y="1310"/>
                        </Array>
                    </mxGeometry>
                </mxCell>
                <mxCell id="70" style="edgeStyle=none;html=1;" edge="1" source="71" target="74" parent="1">
                    <mxGeometry relative="1" as="geometry">
                        <mxPoint x="600" y="1230" as="targetPoint"/>
                    </mxGeometry>
                </mxCell>
                <mxCell id="71" value="sod(n: 864)" style="whiteSpace=wrap;html=1;" vertex="1" parent="1">
                    <mxGeometry x="313" y="1200" width="120" height="60" as="geometry"/>
                </mxCell>
                <mxCell id="72" style="edgeStyle=none;html=1;" edge="1" source="73" target="75" parent="1">
                    <mxGeometry relative="1" as="geometry"/>
                </mxCell>
                <mxCell id="73" value="sod(n: 5)" style="whiteSpace=wrap;html=1;" vertex="1" parent="1">
                    <mxGeometry x="313" y="1280" width="120" height="60" as="geometry"/>
                </mxCell>
                <mxCell id="74" value="6" style="shape=parallelogram;perimeter=parallelogramPerimeter;whiteSpace=wrap;html=1;fixedSize=1;" vertex="1" parent="1">
                    <mxGeometry x="470" y="1200" width="120" height="60" as="geometry"/>
                </mxCell>
                <mxCell id="75" value="5" style="shape=parallelogram;perimeter=parallelogramPerimeter;whiteSpace=wrap;html=1;fixedSize=1;" vertex="1" parent="1">
                    <mxGeometry x="470" y="1280" width="120" height="60" as="geometry"/>
                </mxCell>
                <mxCell id="91" style="edgeStyle=none;html=1;" edge="1" parent="1" source="76" target="79">
                    <mxGeometry relative="1" as="geometry"/>
                </mxCell>
                <mxCell id="76" value="secret(a: {17, 5, 864, 51, 77, 789}, m: 1)" style="whiteSpace=wrap;html=1;" vertex="1" parent="1">
                    <mxGeometry x="78" y="1400" width="235" height="60" as="geometry"/>
                </mxCell>
                <mxCell id="77" value="" style="edgeStyle=segmentEdgeStyle;endArrow=classic;html=1;curved=0;rounded=0;endSize=8;startSize=8;sourcePerimeterSpacing=0;targetPerimeterSpacing=0;" edge="1" source="66" parent="1">
                    <mxGeometry width="100" relative="1" as="geometry">
                        <mxPoint x="234" y="1280" as="sourcePoint"/>
                        <mxPoint x="195" y="1400" as="targetPoint"/>
                        <Array as="points">
                            <mxPoint x="290" y="1280"/>
                            <mxPoint x="290" y="1360"/>
                            <mxPoint x="195" y="1360"/>
                        </Array>
                    </mxGeometry>
                </mxCell>
                <mxCell id="79" value="m == 0" style="rhombus;whiteSpace=wrap;html=1;" vertex="1" parent="1">
                    <mxGeometry x="155.5" y="1520" width="80" height="80" as="geometry"/>
                </mxCell>
                <mxCell id="80" value="false" style="text;html=1;align=center;verticalAlign=middle;resizable=0;points=[];autosize=1;strokeColor=none;fillColor=none;" vertex="1" parent="1">
                    <mxGeometry x="235.5" y="1530" width="50" height="30" as="geometry"/>
                </mxCell>
                <mxCell id="81" value="" style="edgeStyle=segmentEdgeStyle;endArrow=classic;html=1;curved=0;rounded=0;endSize=8;startSize=8;sourcePerimeterSpacing=0;targetPerimeterSpacing=0;" edge="1" parent="1">
                    <mxGeometry width="100" relative="1" as="geometry">
                        <mxPoint x="235" y="1560" as="sourcePoint"/>
                        <mxPoint x="313" y="1510" as="targetPoint"/>
                        <Array as="points">
                            <mxPoint x="290" y="1560"/>
                            <mxPoint x="290" y="1510"/>
                        </Array>
                    </mxGeometry>
                </mxCell>
                <mxCell id="82" value="" style="edgeStyle=segmentEdgeStyle;endArrow=classic;html=1;curved=0;rounded=0;endSize=8;startSize=8;sourcePerimeterSpacing=0;targetPerimeterSpacing=0;" edge="1" parent="1">
                    <mxGeometry width="100" relative="1" as="geometry">
                        <mxPoint x="235" y="1560" as="sourcePoint"/>
                        <mxPoint x="313" y="1590" as="targetPoint"/>
                        <Array as="points">
                            <mxPoint x="290" y="1560"/>
                            <mxPoint x="290" y="1590"/>
                        </Array>
                    </mxGeometry>
                </mxCell>
                <mxCell id="83" style="edgeStyle=none;html=1;" edge="1" source="96" target="87" parent="1">
                    <mxGeometry relative="1" as="geometry">
                        <mxPoint x="600" y="1510" as="targetPoint"/>
                        <mxPoint x="431.875" y="1560" as="sourcePoint"/>
                    </mxGeometry>
                </mxCell>
                <mxCell id="85" style="edgeStyle=none;html=1;" edge="1" target="88" parent="1">
                    <mxGeometry relative="1" as="geometry">
                        <mxPoint x="433" y="1590" as="sourcePoint"/>
                    </mxGeometry>
                </mxCell>
                <mxCell id="87" value="5" style="shape=parallelogram;perimeter=parallelogramPerimeter;whiteSpace=wrap;html=1;fixedSize=1;" vertex="1" parent="1">
                    <mxGeometry x="470" y="1480" width="120" height="60" as="geometry"/>
                </mxCell>
                <mxCell id="88" value="4" style="shape=parallelogram;perimeter=parallelogramPerimeter;whiteSpace=wrap;html=1;fixedSize=1;" vertex="1" parent="1">
                    <mxGeometry x="470" y="1560" width="120" height="60" as="geometry"/>
                </mxCell>
                <mxCell id="99" style="edgeStyle=none;html=1;" edge="1" parent="1" source="89" target="98">
                    <mxGeometry relative="1" as="geometry"/>
                </mxCell>
                <mxCell id="89" value="secret(a: {17, 5, 864, 51, 77, 789}, m: 0)" style="whiteSpace=wrap;html=1;" vertex="1" parent="1">
                    <mxGeometry x="78" y="1680" width="235" height="60" as="geometry"/>
                </mxCell>
                <mxCell id="90" value="" style="edgeStyle=segmentEdgeStyle;endArrow=classic;html=1;curved=0;rounded=0;endSize=8;startSize=8;sourcePerimeterSpacing=0;targetPerimeterSpacing=0;" edge="1" source="79" parent="1">
                    <mxGeometry width="100" relative="1" as="geometry">
                        <mxPoint x="234" y="1560" as="sourcePoint"/>
                        <mxPoint x="195" y="1680" as="targetPoint"/>
                        <Array as="points">
                            <mxPoint x="290" y="1560"/>
                            <mxPoint x="290" y="1640"/>
                            <mxPoint x="195" y="1640"/>
                        </Array>
                    </mxGeometry>
                </mxCell>
                <mxCell id="92" value="sod(n: 77)" style="whiteSpace=wrap;html=1;" vertex="1" parent="1">
                    <mxGeometry x="313" y="440" width="120" height="60" as="geometry"/>
                </mxCell>
                <mxCell id="93" value="sod(n: 789)" style="whiteSpace=wrap;html=1;" vertex="1" parent="1">
                    <mxGeometry x="313" y="360" width="120" height="60" as="geometry"/>
                </mxCell>
                <mxCell id="94" value="sod(n: 51)" style="whiteSpace=wrap;html=1;" vertex="1" parent="1">
                    <mxGeometry x="313" y="920" width="120" height="60" as="geometry"/>
                </mxCell>
                <mxCell id="95" value="sod(n: 864)" style="whiteSpace=wrap;html=1;" vertex="1" parent="1">
                    <mxGeometry x="313" y="1000" width="120" height="60" as="geometry"/>
                </mxCell>
                <mxCell id="96" value="sod(n: 5)" style="whiteSpace=wrap;html=1;" vertex="1" parent="1">
                    <mxGeometry x="313" y="1480" width="120" height="60" as="geometry"/>
                </mxCell>
                <mxCell id="97" value="sod(n: 17)" style="whiteSpace=wrap;html=1;" vertex="1" parent="1">
                    <mxGeometry x="313" y="1560" width="120" height="60" as="geometry"/>
                </mxCell>
                <mxCell id="98" value="m == 0" style="rhombus;whiteSpace=wrap;html=1;" vertex="1" parent="1">
                    <mxGeometry x="155" y="1800" width="80" height="80" as="geometry"/>
                </mxCell>
                <mxCell id="101" value="true" style="shape=parallelogram;perimeter=parallelogramPerimeter;whiteSpace=wrap;html=1;fixedSize=1;" vertex="1" parent="1">
                    <mxGeometry x="135" y="1910" width="120" height="60" as="geometry"/>
                </mxCell>
                <mxCell id="102" value="" style="edgeStyle=segmentEdgeStyle;endArrow=classic;html=1;curved=0;rounded=0;endSize=8;startSize=8;sourcePerimeterSpacing=0;targetPerimeterSpacing=0;" edge="1" parent="1" source="98" target="101">
                    <mxGeometry width="100" relative="1" as="geometry">
                        <mxPoint x="30" y="1850" as="sourcePoint"/>
                        <mxPoint x="130" y="1890" as="targetPoint"/>
                        <Array as="points">
                            <mxPoint x="90" y="1840"/>
                        </Array>
                    </mxGeometry>
                </mxCell>
                <mxCell id="103" value="true" style="text;html=1;align=center;verticalAlign=middle;resizable=0;points=[];autosize=1;strokeColor=none;fillColor=none;" vertex="1" parent="1">
                    <mxGeometry x="100" y="1810" width="40" height="30" as="geometry"/>
                </mxCell>
                <mxCell id="110" style="edgeStyle=none;html=1;" edge="1" parent="1" source="105">
                    <mxGeometry relative="1" as="geometry">
                        <mxPoint x="725" y="1440" as="targetPoint"/>
                    </mxGeometry>
                </mxCell>
                <mxCell id="105" value="true &amp;amp;&amp;amp; (5 - 4 == 1)" style="rhombus;whiteSpace=wrap;html=1;" vertex="1" parent="1">
                    <mxGeometry x="650" y="1500" width="150" height="80" as="geometry"/>
                </mxCell>
                <mxCell id="106" value="" style="edgeStyle=segmentEdgeStyle;endArrow=classic;html=1;curved=0;rounded=0;endSize=8;startSize=8;sourcePerimeterSpacing=0;targetPerimeterSpacing=0;" edge="1" parent="1" source="101" target="105">
                    <mxGeometry width="100" relative="1" as="geometry">
                        <mxPoint x="600" y="1800" as="sourcePoint"/>
                        <mxPoint x="700" y="1840" as="targetPoint"/>
                        <Array as="points">
                            <mxPoint x="620" y="1940"/>
                            <mxPoint x="620" y="1540"/>
                        </Array>
                    </mxGeometry>
                </mxCell>
                <mxCell id="107" value="" style="edgeStyle=segmentEdgeStyle;endArrow=classic;html=1;curved=0;rounded=0;endSize=8;startSize=8;sourcePerimeterSpacing=0;targetPerimeterSpacing=0;" edge="1" parent="1" source="87" target="105">
                    <mxGeometry width="100" relative="1" as="geometry">
                        <mxPoint x="580" y="1450" as="sourcePoint"/>
                        <mxPoint x="680" y="1490" as="targetPoint"/>
                        <Array as="points">
                            <mxPoint x="620" y="1510"/>
                            <mxPoint x="620" y="1540"/>
                        </Array>
                    </mxGeometry>
                </mxCell>
                <mxCell id="108" value="" style="edgeStyle=segmentEdgeStyle;endArrow=classic;html=1;curved=0;rounded=0;endSize=8;startSize=8;sourcePerimeterSpacing=0;targetPerimeterSpacing=0;" edge="1" parent="1" source="88" target="105">
                    <mxGeometry width="100" relative="1" as="geometry">
                        <mxPoint x="540" y="1590" as="sourcePoint"/>
                        <mxPoint x="640" y="1630" as="targetPoint"/>
                        <Array as="points">
                            <mxPoint x="620" y="1590"/>
                            <mxPoint x="620" y="1540"/>
                        </Array>
                    </mxGeometry>
                </mxCell>
                <mxCell id="111" value="true" style="shape=parallelogram;perimeter=parallelogramPerimeter;whiteSpace=wrap;html=1;fixedSize=1;" vertex="1" parent="1">
                    <mxGeometry x="665" y="1380" width="120" height="60" as="geometry"/>
                </mxCell>
                <mxCell id="117" style="edgeStyle=none;html=1;" edge="1" parent="1" source="112" target="116">
                    <mxGeometry relative="1" as="geometry"/>
                </mxCell>
                <mxCell id="112" value="true &amp;amp;&amp;amp; (6 - 5 == 1)" style="rhombus;whiteSpace=wrap;html=1;" vertex="1" parent="1">
                    <mxGeometry x="650" y="1250" width="150" height="80" as="geometry"/>
                </mxCell>
                <mxCell id="113" value="" style="edgeStyle=segmentEdgeStyle;endArrow=classic;html=1;curved=0;rounded=0;endSize=8;startSize=8;sourcePerimeterSpacing=0;targetPerimeterSpacing=0;" edge="1" parent="1" source="74" target="112">
                    <mxGeometry width="100" relative="1" as="geometry">
                        <mxPoint x="580" y="1240" as="sourcePoint"/>
                        <mxPoint x="650" y="1270" as="targetPoint"/>
                        <Array as="points">
                            <mxPoint x="620" y="1230"/>
                            <mxPoint x="620" y="1290"/>
                        </Array>
                    </mxGeometry>
                </mxCell>
                <mxCell id="114" value="" style="edgeStyle=segmentEdgeStyle;endArrow=classic;html=1;curved=0;rounded=0;endSize=8;startSize=8;sourcePerimeterSpacing=0;targetPerimeterSpacing=0;" edge="1" parent="1" source="111" target="112">
                    <mxGeometry width="100" relative="1" as="geometry">
                        <mxPoint x="680" y="1420" as="sourcePoint"/>
                        <mxPoint x="780" y="1460" as="targetPoint"/>
                        <Array as="points">
                            <mxPoint x="620" y="1410"/>
                            <mxPoint x="620" y="1290"/>
                        </Array>
                    </mxGeometry>
                </mxCell>
                <mxCell id="115" value="" style="edgeStyle=segmentEdgeStyle;endArrow=classic;html=1;curved=0;rounded=0;endSize=8;startSize=8;sourcePerimeterSpacing=0;targetPerimeterSpacing=0;" edge="1" parent="1" source="75" target="112">
                    <mxGeometry width="100" relative="1" as="geometry">
                        <mxPoint x="590" y="1240" as="sourcePoint"/>
                        <mxPoint x="660" y="1275" as="targetPoint"/>
                        <Array as="points">
                            <mxPoint x="620" y="1310"/>
                            <mxPoint x="620" y="1290"/>
                        </Array>
                    </mxGeometry>
                </mxCell>
                <mxCell id="116" value="true" style="shape=parallelogram;perimeter=parallelogramPerimeter;whiteSpace=wrap;html=1;fixedSize=1;" vertex="1" parent="1">
                    <mxGeometry x="665" y="1140" width="120" height="60" as="geometry"/>
                </mxCell>
                <mxCell id="118" value="true" style="text;html=1;align=center;verticalAlign=middle;resizable=0;points=[];autosize=1;strokeColor=none;fillColor=none;" vertex="1" parent="1">
                    <mxGeometry x="730" y="1460" width="40" height="30" as="geometry"/>
                </mxCell>
                <mxCell id="119" value="true" style="text;html=1;align=center;verticalAlign=middle;resizable=0;points=[];autosize=1;strokeColor=none;fillColor=none;" vertex="1" parent="1">
                    <mxGeometry x="730" y="1215" width="40" height="30" as="geometry"/>
                </mxCell>
                <mxCell id="124" style="edgeStyle=none;html=1;" edge="1" parent="1" source="120">
                    <mxGeometry relative="1" as="geometry">
                        <mxPoint x="725" y="960" as="targetPoint"/>
                    </mxGeometry>
                </mxCell>
                <mxCell id="120" value="true &amp;amp;&amp;amp; (3 - 6 == 1)" style="rhombus;whiteSpace=wrap;html=1;" vertex="1" parent="1">
                    <mxGeometry x="650" y="1010" width="150" height="80" as="geometry"/>
                </mxCell>
                <mxCell id="121" value="" style="edgeStyle=segmentEdgeStyle;endArrow=classic;html=1;curved=0;rounded=0;endSize=8;startSize=8;sourcePerimeterSpacing=0;targetPerimeterSpacing=0;" edge="1" parent="1">
                    <mxGeometry width="100" relative="1" as="geometry">
                        <mxPoint x="675" y="1170" as="sourcePoint"/>
                        <mxPoint x="650" y="1050" as="targetPoint"/>
                        <Array as="points">
                            <mxPoint x="620" y="1170"/>
                            <mxPoint x="620" y="1050"/>
                        </Array>
                    </mxGeometry>
                </mxCell>
                <mxCell id="122" value="" style="edgeStyle=segmentEdgeStyle;endArrow=classic;html=1;curved=0;rounded=0;endSize=8;startSize=8;sourcePerimeterSpacing=0;targetPerimeterSpacing=0;" edge="1" parent="1" source="61" target="120">
                    <mxGeometry width="100" relative="1" as="geometry">
                        <mxPoint x="610" y="1020" as="sourcePoint"/>
                        <mxPoint x="650" y="1030" as="targetPoint"/>
                        <Array as="points">
                            <mxPoint x="620" y="1030"/>
                            <mxPoint x="620" y="1050"/>
                        </Array>
                    </mxGeometry>
                </mxCell>
                <mxCell id="123" value="" style="edgeStyle=segmentEdgeStyle;endArrow=classic;html=1;curved=0;rounded=0;endSize=8;startSize=8;sourcePerimeterSpacing=0;targetPerimeterSpacing=0;" edge="1" parent="1" target="120">
                    <mxGeometry width="100" relative="1" as="geometry">
                        <mxPoint x="580" y="950" as="sourcePoint"/>
                        <mxPoint x="650" y="970" as="targetPoint"/>
                        <Array as="points">
                            <mxPoint x="620" y="950"/>
                            <mxPoint x="620" y="1050"/>
                        </Array>
                    </mxGeometry>
                </mxCell>
                <mxCell id="125" value="false" style="shape=parallelogram;perimeter=parallelogramPerimeter;whiteSpace=wrap;html=1;fixedSize=1;" vertex="1" parent="1">
                    <mxGeometry x="665" y="900" width="120" height="60" as="geometry"/>
                </mxCell>
                <mxCell id="126" value="false" style="text;html=1;align=center;verticalAlign=middle;resizable=0;points=[];autosize=1;strokeColor=none;fillColor=none;" vertex="1" parent="1">
                    <mxGeometry x="725" y="970" width="50" height="30" as="geometry"/>
                </mxCell>
                <mxCell id="133" style="edgeStyle=none;html=1;" edge="1" parent="1" source="127" target="132">
                    <mxGeometry relative="1" as="geometry"/>
                </mxCell>
                <mxCell id="127" value="false &amp;amp;&amp;amp; (7 - 3 == 1)" style="rhombus;whiteSpace=wrap;html=1;" vertex="1" parent="1">
                    <mxGeometry x="650" y="760" width="150" height="80" as="geometry"/>
                </mxCell>
                <mxCell id="129" value="" style="edgeStyle=segmentEdgeStyle;endArrow=classic;html=1;curved=0;rounded=0;endSize=8;startSize=8;sourcePerimeterSpacing=0;targetPerimeterSpacing=0;" edge="1" parent="1" source="31" target="127">
                    <mxGeometry width="100" relative="1" as="geometry">
                        <mxPoint x="640" y="870" as="sourcePoint"/>
                        <mxPoint x="740" y="910" as="targetPoint"/>
                        <Array as="points">
                            <mxPoint x="620" y="670"/>
                            <mxPoint x="620" y="800"/>
                        </Array>
                    </mxGeometry>
                </mxCell>
                <mxCell id="130" value="" style="edgeStyle=segmentEdgeStyle;endArrow=classic;html=1;curved=0;rounded=0;endSize=8;startSize=8;sourcePerimeterSpacing=0;targetPerimeterSpacing=0;" edge="1" parent="1" source="33" target="127">
                    <mxGeometry width="100" relative="1" as="geometry">
                        <mxPoint x="570" y="860" as="sourcePoint"/>
                        <mxPoint x="670" y="900" as="targetPoint"/>
                        <Array as="points">
                            <mxPoint x="620" y="750"/>
                            <mxPoint x="620" y="800"/>
                        </Array>
                    </mxGeometry>
                </mxCell>
                <mxCell id="131" value="" style="edgeStyle=segmentEdgeStyle;endArrow=classic;html=1;curved=0;rounded=0;endSize=8;startSize=8;sourcePerimeterSpacing=0;targetPerimeterSpacing=0;" edge="1" parent="1" source="125" target="127">
                    <mxGeometry width="100" relative="1" as="geometry">
                        <mxPoint x="660" y="910" as="sourcePoint"/>
                        <mxPoint x="760" y="950" as="targetPoint"/>
                        <Array as="points">
                            <mxPoint x="620" y="930"/>
                            <mxPoint x="620" y="800"/>
                        </Array>
                    </mxGeometry>
                </mxCell>
                <mxCell id="132" value="false" style="shape=parallelogram;perimeter=parallelogramPerimeter;whiteSpace=wrap;html=1;fixedSize=1;" vertex="1" parent="1">
                    <mxGeometry x="665" y="600" width="120" height="60" as="geometry"/>
                </mxCell>
                <mxCell id="134" value="false" style="text;html=1;align=center;verticalAlign=middle;resizable=0;points=[];autosize=1;strokeColor=none;fillColor=none;" vertex="1" parent="1">
                    <mxGeometry x="725" y="700" width="50" height="30" as="geometry"/>
                </mxCell>
                <mxCell id="143" style="edgeStyle=none;html=1;" edge="1" parent="1" source="135" target="141">
                    <mxGeometry relative="1" as="geometry"/>
                </mxCell>
                <mxCell id="135" value="false &amp;amp;&amp;amp; (8 - 7 == 1)" style="rhombus;whiteSpace=wrap;html=1;" vertex="1" parent="1">
                    <mxGeometry x="650" y="480" width="150" height="80" as="geometry"/>
                </mxCell>
                <mxCell id="136" value="" style="edgeStyle=segmentEdgeStyle;endArrow=classic;html=1;curved=0;rounded=0;endSize=8;startSize=8;sourcePerimeterSpacing=0;targetPerimeterSpacing=0;" edge="1" parent="1" source="21" target="135">
                    <mxGeometry width="100" relative="1" as="geometry">
                        <mxPoint x="600" y="470" as="sourcePoint"/>
                        <mxPoint x="700" y="510" as="targetPoint"/>
                        <Array as="points">
                            <mxPoint x="620" y="390"/>
                            <mxPoint x="620" y="520"/>
                        </Array>
                    </mxGeometry>
                </mxCell>
                <mxCell id="137" value="" style="edgeStyle=segmentEdgeStyle;endArrow=classic;html=1;curved=0;rounded=0;endSize=8;startSize=8;sourcePerimeterSpacing=0;targetPerimeterSpacing=0;" edge="1" parent="1" source="20" target="135">
                    <mxGeometry width="100" relative="1" as="geometry">
                        <mxPoint x="530" y="530" as="sourcePoint"/>
                        <mxPoint x="640" y="510" as="targetPoint"/>
                        <Array as="points">
                            <mxPoint x="620" y="470"/>
                            <mxPoint x="620" y="520"/>
                        </Array>
                    </mxGeometry>
                </mxCell>
                <mxCell id="138" value="" style="edgeStyle=segmentEdgeStyle;endArrow=classic;html=1;curved=0;rounded=0;endSize=8;startSize=8;sourcePerimeterSpacing=0;targetPerimeterSpacing=0;" edge="1" parent="1" source="132" target="135">
                    <mxGeometry width="100" relative="1" as="geometry">
                        <mxPoint x="600" y="610" as="sourcePoint"/>
                        <mxPoint x="700" y="650" as="targetPoint"/>
                        <Array as="points">
                            <mxPoint x="620" y="630"/>
                            <mxPoint x="620" y="520"/>
                        </Array>
                    </mxGeometry>
                </mxCell>
                <mxCell id="145" style="edgeStyle=none;html=1;" edge="1" parent="1" source="141" target="144">
                    <mxGeometry relative="1" as="geometry"/>
                </mxCell>
                <mxCell id="141" value="false" style="shape=parallelogram;perimeter=parallelogramPerimeter;whiteSpace=wrap;html=1;fixedSize=1;" vertex="1" parent="1">
                    <mxGeometry x="665" y="230" width="120" height="60" as="geometry"/>
                </mxCell>
                <mxCell id="142" value="false" style="text;html=1;align=center;verticalAlign=middle;resizable=0;points=[];autosize=1;strokeColor=none;fillColor=none;" vertex="1" parent="1">
                    <mxGeometry x="725" y="375" width="50" height="30" as="geometry"/>
                </mxCell>
                <mxCell id="144" value="END" style="ellipse;whiteSpace=wrap;html=1;" vertex="1" parent="1">
                    <mxGeometry x="665" y="40" width="120" height="80" as="geometry"/>
                </mxCell>
                <mxCell id="150" style="edgeStyle=none;html=1;" edge="1" parent="1" source="149" target="151">
                    <mxGeometry relative="1" as="geometry">
                        <mxPoint x="370" y="2070" as="targetPoint"/>
                    </mxGeometry>
                </mxCell>
                <mxCell id="149" value="secret(a: {51, 17, 5, 864, 77, 789})" style="whiteSpace=wrap;html=1;" vertex="1" parent="1">
                    <mxGeometry x="490" y="2040" width="235" height="60" as="geometry"/>
                </mxCell>
                <mxCell id="151" value="true" style="shape=parallelogram;perimeter=parallelogramPerimeter;whiteSpace=wrap;html=1;fixedSize=1;" vertex="1" parent="1">
                    <mxGeometry x="255" y="2040" width="120" height="60" as="geometry"/>
                </mxCell>
                <mxCell id="152" value="הפונקציה בודקת אם ממוצע הספרות של כל מספר במערך עוקב למספר הסמוך אליו" style="text;html=1;align=center;verticalAlign=middle;resizable=0;points=[];autosize=1;strokeColor=none;fillColor=none;" vertex="1" parent="1">
                    <mxGeometry x="285" y="2130" width="450" height="30" as="geometry"/>
                </mxCell>
            </root>
        </mxGraphModel>
    </diagram>
</mxfile>